# xmcd CD database file
# Copyright (C) 1993-1998 Ti Kan
#
# Track frame offsets:
#	262
#	11437
#	25387
#	40612
#	58087
#	72862
#	89737
#	101062
#	118237
#	137812
#
# Disc length: 2211 seconds
#
# Revision: 1
# Processed by: cddbd v1.4b41PL1 Copyright (c) Steve Scherf et al.
# Submitted via: CDValet v3.31 - Copyright (c) 1997 Greg Leichner
#
DISCID=8c08a00a
DTITLE=White, Josh Jr., with Robin Batteau - Jazz, Ballads and Bl
DTITLE=ues
DYEAR=1900
DGENRE=
TTITLE0=You Won't Let Me Go
TTITLE1=Call Me Darling
TTITLE2=You'd Be So Nice To Come Home To
TTITLE3=Strange Fruit
TTITLE4=St. James Infirmary
TTITLE5=Don't Smoke In Bed
TTITLE6=Frankie and Johnnie
TTITLE7=Outskirts of Town
TTITLE8=Miss Otis Regrets
TTITLE9=House Of The Rising Sun
EXTD=
EXTT0=
EXTT1=
EXTT2=
EXTT3=
EXTT4=
EXTT5=
EXTT6=
EXTT7=
EXTT8=
EXTT9=
PLAYORDER=
